<svg
    width="28"
    height="28"
    viewBox="0 0 28 28"
    fill="none"
    xmlns="http://www.w3.org/2000/svg"
>
    <g clip-path="url(#clip0_154_954)">
        <path
            d="M28.0723 10.4998H26.6C25.8858 10.5 25.1738 10.5783 24.4767 10.7331C23.577 9.23521 22.3763 7.94025 20.9505 6.93015C19.5247 5.92004 17.9049 5.21677 16.1933 4.8648C16.5721 4.44555 16.821 3.9253 16.9097 3.36728C16.9984 2.80926 16.9231 2.2375 16.6929 1.72147C16.4628 1.20544 16.0877 0.767363 15.6133 0.460483C15.1389 0.153603 14.5855 -0.00886905 14.0205 -0.00718925C13.4555 -0.00550946 12.9031 0.16025 12.4305 0.469945C11.9579 0.779641 11.5855 1.21994 11.3584 1.73733C11.1313 2.25472 11.0594 2.82692 11.1514 3.3844C11.2434 3.94189 11.4954 4.46064 11.8767 4.87763C10.168 5.23317 8.55076 5.93663 7.1257 6.94421C5.70064 7.95179 4.49823 9.24192 3.59333 10.7343C2.89699 10.5791 2.18577 10.5004 1.47233 10.4998H0L3.56067 25.6665H2.3695V27.9998H25.7028V25.6665H24.5128L28.0723 10.4998ZM14.0362 6.9998C15.6754 7.02414 17.283 7.45505 18.7147 8.25387C20.1464 9.05268 21.3574 10.1944 22.239 11.5766C21.3061 12.0817 20.5008 12.7932 19.8847 13.6568C19.2473 12.688 18.3793 11.8928 17.3586 11.3425C16.3378 10.7922 15.1964 10.5041 14.0367 10.5041C12.8771 10.5041 11.7357 10.7922 10.7149 11.3425C9.69421 11.8928 8.82618 12.688 8.18883 13.6568C7.573 12.7939 6.76812 12.0832 5.83567 11.579C6.71766 10.1974 7.92834 9.05607 9.35941 8.25696C10.7905 7.45785 12.3973 7.02592 14.0362 6.9998ZM2.97733 12.972C4.09202 13.0961 5.12197 13.6263 5.87061 14.4615C6.61926 15.2966 7.03417 16.3782 7.03617 17.4998H9.3695C9.3695 16.2621 9.86117 15.0751 10.7363 14.2C11.6115 13.3248 12.7985 12.8331 14.0362 12.8331C15.2738 12.8331 16.4608 13.3248 17.336 14.2C18.2112 15.0751 18.7028 16.2621 18.7028 17.4998H21.0362C21.0381 16.3784 21.4529 15.297 22.2013 14.4619C22.9497 13.6267 23.9794 13.0964 25.0938 12.972L22.1223 25.6665H5.957L2.97733 12.972Z"
            fill="#DDA82A"
        />
    </g>
    <defs>
        <clipPath id="clip0_154_954">
            <rect width="28" height="28" fill="white" />
        </clipPath>
    </defs>
</svg>