<svg
    width="28"
    height="28"
    viewBox="0 0 28 28"
    fill="none"
    xmlns="http://www.w3.org/2000/svg"
>
    <path
        d="M27.2543 4.54397L23.4361 0.722587C22.4741 -0.240246 20.8006 -0.242095 19.8348 0.724436L2.73019 17.9979C2.65436 18.0743 2.59965 18.1683 2.56982 18.2715L0.0244246 27.1882C-0.0389926 27.4102 0.0231718 27.6497 0.186637 27.8133C0.307804 27.9346 0.470016 27.9999 0.636583 27.9999C0.694989 27.9999 0.754051 27.9918 0.811204 27.9756L9.72022 25.428C9.82337 25.3982 9.91722 25.3434 9.99364 25.2675L27.2543 8.14646C27.7353 7.66508 28 7.02565 28 6.34525C28 5.66484 27.7353 5.02535 27.2543 4.54397ZM17.0618 5.35348L19.4042 7.69592L7.17441 19.9258L6.29671 18.1698C6.18855 17.9541 5.96858 17.818 5.72744 17.818H4.70835L17.0618 5.35348ZM1.56314 26.4369L2.39204 23.5353L4.46471 25.6079L1.56314 26.4369ZM8.90922 24.3383L5.86454 25.208L2.79193 22.1354L3.6617 19.0907H5.33399L6.43082 21.2845C6.49233 21.4075 6.59238 21.5076 6.71545 21.5691L8.90916 22.6659L8.90922 24.3383ZM10.182 23.2917V22.2726C10.182 22.0314 10.0459 21.8115 9.83024 21.7033L8.07424 20.8256L20.304 8.59581L22.6465 10.9383L10.182 23.2917ZM26.3563 7.26154L23.5504 10.0424L17.9575 4.44959L20.7366 1.64557C21.2176 1.16454 22.0553 1.16454 22.5363 1.64557L26.3545 5.46373C26.5949 5.70421 26.7273 6.02362 26.7273 6.36356C26.7273 6.7035 26.5949 7.02291 26.3563 7.26154Z"
        fill="white"
    />
</svg>