<svg
    width="28"
    height="28"
    viewBox="0 0 28 28"
    fill="none"
    xmlns="http://www.w3.org/2000/svg"
>
    <g clip-path="url(#clip0_147_894)">
        <path
            d="M17.0897 6.4085C18.107 5.59067 19.157 4.49167 19.6878 3.15583C19.9655 2.45817 19.878 1.66717 19.451 1.03717C19.0112 0.387333 18.282 0 17.5003 0H10.5003C9.71866 0 8.98949 0.3885 8.54966 1.03717C8.12266 1.66717 8.03516 2.45817 8.31166 3.1535C8.84366 4.4905 9.89249 5.59067 10.911 6.40733C5.47783 8.4245 1.16699 15.3522 1.16699 21C1.16699 24.8605 4.30649 28 8.16699 28H19.8337C23.6942 28 26.8337 24.8605 26.8337 21C26.8337 15.3522 22.5228 8.4245 17.0897 6.4085ZM17.519 2.2925C16.9182 3.8045 15.076 5.08433 13.998 5.6875C12.9212 5.089 11.0872 3.82083 10.4992 2.33333L17.519 2.2925ZM19.8325 25.6667H8.16699C5.59333 25.6667 3.50033 23.5737 3.50033 21C3.50033 14.8832 8.99533 8.16667 14.0003 8.16667C19.0053 8.16667 24.5003 14.8832 24.5003 21C24.5003 23.5737 22.4062 25.6667 19.8325 25.6667Z"
            fill="white"
        />
    </g>
    <defs>
        <clipPath id="clip0_147_894">
            <rect width="28" height="28" fill="white" />
        </clipPath>
    </defs>
</svg>