<svg
    width="28"
    height="28"
    viewBox="0 0 28 28"
    fill="none"
    xmlns="http://www.w3.org/2000/svg"
>
    <g clip-path="url(#clip0_147_905)">
        <path
            d="M8.75 15.1667C7.71165 15.1667 6.69661 14.8588 5.83326 14.2819C4.9699 13.705 4.29699 12.8851 3.89963 11.9258C3.50227 10.9664 3.3983 9.91085 3.60088 8.89245C3.80345 7.87405 4.30346 6.93858 5.03769 6.20436C5.77191 5.47013 6.70738 4.97012 7.72578 4.76755C8.74418 4.56497 9.79978 4.66894 10.7591 5.0663C11.7184 5.46366 12.5383 6.13657 13.1152 6.99993C13.6921 7.86328 14 8.87832 14 9.91667C13.9985 11.3086 13.4448 12.643 12.4606 13.6273C11.4764 14.6115 10.1419 15.1651 8.75 15.1667ZM8.75 7C8.17314 7 7.60923 7.17106 7.12959 7.49155C6.64994 7.81204 6.27611 8.26756 6.05535 8.80051C5.8346 9.33346 5.77684 9.91991 5.88938 10.4857C6.00192 11.0515 6.2797 11.5712 6.6876 11.9791C7.09551 12.387 7.61521 12.6648 8.18099 12.7773C8.74676 12.8898 9.33321 12.8321 9.86616 12.6113C10.3991 12.3906 10.8546 12.0167 11.1751 11.5371C11.4956 11.0574 11.6667 10.4935 11.6667 9.91667C11.6667 9.14312 11.3594 8.40126 10.8124 7.85427C10.2654 7.30729 9.52355 7 8.75 7ZM17.5 26.8333V26.25C17.5 23.9294 16.5781 21.7038 14.9372 20.0628C13.2962 18.4219 11.0706 17.5 8.75 17.5C6.42936 17.5 4.20376 18.4219 2.56282 20.0628C0.921872 21.7038 0 23.9294 0 26.25L0 26.8333C0 27.1428 0.122916 27.4395 0.341709 27.6583C0.560501 27.8771 0.857247 28 1.16667 28C1.47609 28 1.77283 27.8771 1.99162 27.6583C2.21042 27.4395 2.33333 27.1428 2.33333 26.8333V26.25C2.33333 24.5482 3.00937 22.9161 4.21273 21.7127C5.41609 20.5094 7.04819 19.8333 8.75 19.8333C10.4518 19.8333 12.0839 20.5094 13.2873 21.7127C14.4906 22.9161 15.1667 24.5482 15.1667 26.25V26.8333C15.1667 27.1428 15.2896 27.4395 15.5084 27.6583C15.7272 27.8771 16.0239 28 16.3333 28C16.6428 28 16.9395 27.8771 17.1583 27.6583C17.3771 27.4395 17.5 27.1428 17.5 26.8333ZM28 21C28 19.4235 27.5436 17.8806 26.686 16.5578C25.8284 15.2349 24.6062 14.1885 23.167 13.545C21.7278 12.9014 20.1331 12.6882 18.5754 12.931C17.0177 13.1739 15.5635 13.8624 14.3885 14.9135C14.2727 15.0152 14.1783 15.1389 14.1106 15.2773C14.0428 15.4158 14.0032 15.5663 13.994 15.7201C13.9848 15.874 14.0062 16.0281 14.0569 16.1737C14.1076 16.3192 14.1866 16.4533 14.2894 16.5681C14.3922 16.6829 14.5167 16.7762 14.6558 16.8426C14.7949 16.9091 14.9457 16.9473 15.0997 16.9551C15.2536 16.9629 15.4075 16.9401 15.5526 16.888C15.6977 16.836 15.831 16.7557 15.9448 16.6518C16.7842 15.9012 17.8229 15.4096 18.9355 15.2363C20.0481 15.063 21.1871 15.2154 22.215 15.6751C23.2429 16.1348 24.1158 16.8823 24.7282 17.8271C25.3407 18.772 25.6666 19.874 25.6667 21C25.6667 21.3094 25.7896 21.6062 26.0084 21.825C26.2272 22.0438 26.5239 22.1667 26.8333 22.1667C27.1428 22.1667 27.4395 22.0438 27.6583 21.825C27.8771 21.6062 28 21.3094 28 21ZM20.4167 10.5C19.3783 10.5 18.3633 10.1921 17.4999 9.61522C16.6366 9.03834 15.9637 8.2184 15.5663 7.25909C15.1689 6.29978 15.065 5.24418 15.2675 4.22578C15.4701 3.20738 15.9701 2.27192 16.7044 1.53769C17.4386 0.803466 18.374 0.303452 19.3924 0.10088C20.4108 -0.101693 21.4664 0.00227475 22.4258 0.399635C23.3851 0.796995 24.205 1.4699 24.7819 2.33326C25.3588 3.19662 25.6667 4.21165 25.6667 5.25C25.6651 6.64192 25.1115 7.97638 24.1273 8.96061C23.143 9.94484 21.8086 10.4985 20.4167 10.5ZM20.4167 2.33334C19.8398 2.33334 19.2759 2.5044 18.7963 2.82488C18.3166 3.14537 17.9428 3.60089 17.722 4.13384C17.5013 4.66679 17.4435 5.25324 17.556 5.81902C17.6686 6.38479 17.9464 6.90449 18.3543 7.3124C18.7622 7.7203 19.2819 7.99809 19.8477 8.11063C20.4134 8.22317 20.9999 8.16541 21.5328 7.94465C22.0658 7.7239 22.5213 7.35006 22.8418 6.87042C23.1623 6.39077 23.3333 5.82686 23.3333 5.25C23.3333 4.47645 23.026 3.73459 22.4791 3.18761C21.9321 2.64063 21.1902 2.33334 20.4167 2.33334Z"
            fill="white"
        />
    </g>
    <defs>
        <clipPath id="clip0_147_905">
            <rect width="28" height="28" fill="white" />
        </clipPath>
    </defs>
</svg>