<svg 
    width="21" 
    height="19" 
    viewBox="0 0 21 19" 
    fill="none" 
    xmlns="http://www.w3.org/2000/svg">
    <path
        fill-rule="evenodd"
        clip-rule="evenodd"
        d="M10.6023 12.5434C9.07937 12.5434 7.84406 11.2389 7.84406 9.62906C7.84406 8.8134 8.16008 8.07811 8.67115 7.54837C8.8609 7.35169 8.86382 7.02973 8.67767 6.82924C8.49152 6.62876 8.1868 6.62567 7.99705 6.82235C7.30926 7.53527 6.88147 8.52896 6.88147 9.62906C6.88147 11.8008 8.54791 13.5604 10.6023 13.5604C11.6425 13.5604 12.5839 13.1085 13.2587 12.3817C13.4448 12.1812 13.4419 11.8593 13.2522 11.6626C13.0624 11.4659 12.7577 11.469 12.5716 11.6695C12.0702 12.2094 11.3735 12.5434 10.6023 12.5434Z"
        fill="#677185"
    />
    <path
        fill-rule="evenodd"
        clip-rule="evenodd"
        d="M2.97108 13.8393C4.51795 15.8464 6.974 17.908 10.5189 17.908C12.9231 17.908 14.8368 16.9571 16.3045 15.7164C16.5099 15.5429 16.5422 15.2276 16.3767 15.0122C16.2112 14.7969 15.9106 14.763 15.7053 14.9366C14.3723 16.0633 12.664 16.9063 10.5189 16.9063C7.36925 16.9063 5.15929 15.0852 3.71377 13.2096C2.99206 12.2732 2.47051 11.3343 2.12946 10.6287C1.95923 10.2765 1.83474 9.984 1.75337 9.7812C1.73312 9.73074 1.71556 9.68587 1.70064 9.64704C1.73707 9.5571 1.78832 9.43461 1.85469 9.2853C2.00707 8.94246 2.23855 8.45959 2.5525 7.90573C3.18246 6.79437 4.13403 5.41573 5.42972 4.30476C5.63389 4.1297 5.6641 3.81419 5.49719 3.60005C5.33028 3.38591 5.02945 3.35423 4.82528 3.52929C3.414 4.73937 2.39525 6.22311 1.73162 7.39387C1.39878 7.98107 1.15265 8.4942 0.989128 8.86208C0.907316 9.04614 0.846036 9.19418 0.804792 9.29734C0.784166 9.34894 0.768538 9.38934 0.757849 9.41745C0.752503 9.4315 0.748391 9.44249 0.745505 9.45026L0.742093 9.4595L0.741075 9.46229L0.740737 9.46322L0.740611 9.46356C0.74056 9.4637 0.740514 9.46383 1.18685 9.64179C0.73704 9.80985 0.737113 9.81007 0.737196 9.81031L0.737413 9.81095L0.738031 9.81276L0.740004 9.81848C0.741648 9.82322 0.743948 9.82981 0.746912 9.83819C0.752838 9.85496 0.761418 9.87888 0.772697 9.9095C0.79525 9.97072 0.828611 10.0587 0.87314 10.1697C0.962163 10.3916 1.09603 10.7058 1.27766 11.0816C1.64035 11.832 2.19659 12.8344 2.97108 13.8393ZM1.18685 9.64179L0.73704 9.80985C0.698961 9.69774 0.700193 9.57508 0.740514 9.46383L1.18685 9.64179Z"
        fill="#677185"
    />
    <path
        fill-rule="evenodd"
        clip-rule="evenodd"
        d="M16.9188 14.1588C17.1137 14.3412 17.4131 14.3239 17.5875 14.1202C18.5035 13.0509 19.1607 11.9374 19.5887 11.0935C19.8031 10.6708 19.961 10.3136 20.0659 10.0604C20.1184 9.93376 20.1577 9.83298 20.1842 9.76285C20.1974 9.72778 20.2075 9.70036 20.2145 9.68119C20.2179 9.67161 20.2206 9.66408 20.2225 9.65869L20.2248 9.65221L20.2255 9.65019L20.2258 9.64949L20.2259 9.64922C20.2259 9.6491 20.2259 9.64899 19.7807 9.48034C20.2234 9.30459 20.2233 9.30439 20.2233 9.30416L20.2224 9.3018L20.2203 9.29619C20.2186 9.29153 20.2162 9.28502 20.2131 9.27673C20.2068 9.26015 20.1977 9.23643 20.1859 9.20605C20.1621 9.14529 20.127 9.05783 20.0803 8.94749C19.987 8.72688 19.8472 8.4143 19.6593 8.04036C19.2841 7.29364 18.7137 6.29603 17.9329 5.29595C16.376 3.30175 13.9356 1.24245 10.5042 1.24245C8.95667 1.24245 7.60546 1.66338 6.44622 2.31054C6.21553 2.43932 6.1284 2.73919 6.25162 2.98031C6.37484 3.22143 6.66174 3.31249 6.89243 3.18371C7.92875 2.60517 9.12784 2.23236 10.5042 2.23236C13.5356 2.23236 15.7335 4.04453 17.1991 5.9218C17.9296 6.85745 18.4665 7.79557 18.8208 8.50066C18.9977 8.85261 19.1283 9.14495 19.2141 9.34778C19.2358 9.39913 19.2546 9.44471 19.2706 9.48404C19.2507 9.53492 19.2261 9.59625 19.1968 9.66696C19.1004 9.89957 18.9531 10.233 18.7519 10.6299C18.3485 11.4253 17.7327 12.4666 16.8819 13.4599C16.7075 13.6636 16.724 13.9765 16.9188 14.1588ZM19.7807 9.48034L20.2234 9.30459C20.2637 9.41538 20.2646 9.53758 20.2259 9.64899L19.7807 9.48034Z"
        fill="#677185"
    />
    <path
        fill-rule="evenodd"
        clip-rule="evenodd"
        d="M13.5114 10.6549C13.7576 10.702 13.9908 10.5132 14.0323 10.233C14.0641 10.0182 14.0821 9.79597 14.0821 9.56681C14.0821 7.37109 12.5178 5.58999 10.5871 5.58999C10.3857 5.58999 10.1904 5.61054 10.0016 5.6467C9.75541 5.69385 9.58941 5.95919 9.63085 6.23935C9.6723 6.51951 9.90549 6.70839 10.1517 6.66124C10.295 6.6338 10.44 6.6188 10.5871 6.6188C12.0183 6.6188 13.1779 7.9391 13.1779 9.56681C13.1779 9.73421 13.1648 9.8992 13.1407 10.0622C13.0992 10.3424 13.2652 10.6077 13.5114 10.6549Z"
        fill="#677185"
    />
    <path
        fill-rule="evenodd"
        clip-rule="evenodd"
        d="M6.88147 9.62906C6.88147 11.8007 8.54696 13.5604 10.6023 13.5604C11.6435 13.5604 12.584 13.1084 13.2587 12.3817C13.4448 12.1812 13.4419 11.8593 13.2522 11.6626C13.0624 11.4659 12.7577 11.469 12.5716 11.6695C12.0702 12.2095 11.3743 12.5434 10.6023 12.5434C9.07858 12.5434 7.84406 11.239 7.84406 9.62906C7.84406 8.81426 8.16014 8.07806 8.67115 7.54837C8.8609 7.35169 8.86382 7.02973 8.67767 6.82924C8.49152 6.62876 8.1868 6.62567 7.99705 6.82235C7.30921 7.53532 6.88147 8.52996 6.88147 9.62906Z"
        fill="#677185"
    />
    <path
        fill-rule="evenodd"
        clip-rule="evenodd"
        d="M18.7454 18.1252C18.9284 17.9318 18.9284 17.6182 18.7454 17.4248L3.22398 1.02521C3.04093 0.8318 2.74416 0.8318 2.56111 1.02521C2.37807 1.21861 2.37807 1.53218 2.56111 1.72558L18.0825 18.1252C18.2656 18.3186 18.5623 18.3186 18.7454 18.1252Z"
        fill="#677185"
    />
</svg>