<svg width="18" height="18" viewBox="0 0 18 18" fill="none" xmlns="http://www.w3.org/2000/svg">
    <g clip-path="url(#clip0_154_832)">
        <path
            d="M10.4946 2.88504C10.4994 3.18967 10.6846 3.46239 10.9661 3.57915C13.4842 4.68715 15.0773 7.21333 14.9919 9.96314C14.9315 13.6889 11.8622 16.6602 8.13645 16.5997C4.4107 16.5393 1.43939 13.47 1.49986 9.74425C1.50341 7.07373 3.08195 4.65669 5.52573 3.57989C5.80727 3.46243 5.9924 3.18928 5.99722 2.88431C5.99788 2.47034 5.6628 2.13423 5.24883 2.13356C5.15238 2.13342 5.05678 2.15187 4.96732 2.18795C0.789384 3.99926 -1.12912 8.85451 0.68222 13.0325C2.49357 17.2104 7.34878 19.1289 11.5267 17.3176C15.7047 15.5062 17.6231 10.651 15.8118 6.47306C14.9792 4.55254 13.4472 3.0206 11.5267 2.18795C11.1433 2.03188 10.7059 2.2162 10.5499 2.5996C10.513 2.69025 10.4942 2.78719 10.4946 2.88504Z"
            fill="#4461F2"
        />
        <path
            d="M8.24589 0C8.65985 0 8.99543 0.33558 8.99543 0.749548V5.2469C8.99543 5.66087 8.65985 5.99645 8.24589 5.99645C7.83192 5.99645 7.49634 5.66087 7.49634 5.2469V0.749548C7.4963 0.33558 7.83192 0 8.24589 0Z"
            fill="#4461F2"
        />
    </g>
    <defs>
        <clipPath id="clip0_154_832">
            <rect width="18" height="18" fill="white" />
        </clipPath>
    </defs>
</svg>