<svg
    width="17"
    height="17"
    viewBox="0 0 17 17"
    fill="none"
    xmlns="http://www.w3.org/2000/svg"
>
    <g clip-path="url(#clip0_71_2033)">
        <path
            d="M10.3753 3.89087C10.993 3.39433 11.6305 2.72708 11.9528 1.91604C12.1214 1.49246 12.0683 1.01221 11.809 0.629708C11.542 0.235167 11.0993 0 10.6247 0H6.37467C5.90009 0 5.45738 0.235875 5.19034 0.629708C4.93109 1.01221 4.87797 1.49246 5.04584 1.91463C5.36884 2.72638 6.00563 3.39433 6.62401 3.89017C3.3253 5.11487 0.708008 9.32096 0.708008 12.75C0.708008 15.0939 2.61413 17 4.95801 17H12.0413C14.3852 17 16.2913 15.0939 16.2913 12.75C16.2913 9.32096 13.6741 5.11487 10.3753 3.89087ZM10.636 1.39188C10.2712 2.30988 9.15276 3.08692 8.49826 3.45312C7.84447 3.08975 6.73097 2.31979 6.37397 1.41667L10.636 1.39188ZM12.0406 15.5833H4.95801C3.39542 15.5833 2.12467 14.3126 2.12467 12.75C2.12467 9.03621 5.46092 4.95833 8.49967 4.95833C11.5384 4.95833 14.8747 9.03621 14.8747 12.75C14.8747 14.3126 13.6032 15.5833 12.0406 15.5833Z"
            fill="white"
        />
    </g>
    <defs>
        <clipPath id="clip0_71_2033">
            <rect width="17" height="17" fill="white" />
        </clipPath>
    </defs>
</svg>