<svg width="20" height="19" viewBox="0 0 20 19" fill="none" xmlns="http://www.w3.org/2000/svg">
    <path
        fill-rule="evenodd"
        clip-rule="evenodd"
        d="M14.6458 13.1474L18.868 17.3747C19.0566 17.5844 19.0473 17.9055 18.8469 18.1039L18.1081 18.8437C18.009 18.9437 17.8741 19 17.7333 19C17.5926 19 17.4577 18.9437 17.3586 18.8437L13.1364 14.6164C13.0196 14.4994 12.9136 14.372 12.8197 14.2359L12.0281 13.1791C10.7182 14.2263 9.09155 14.7965 7.41527 14.796C3.96108 14.808 0.959522 12.4224 0.187602 9.0515C-0.584319 5.68058 1.07941 2.22404 4.19382 0.728242C7.30823 -0.767556 11.0421 0.0965967 13.1849 2.8091C15.3277 5.5216 15.3076 9.35852 13.1364 12.0483L14.1919 12.7775C14.3568 12.8831 14.5091 13.0072 14.6458 13.1474ZM2.13763 7.39823C2.13763 10.3166 4.50057 12.6824 7.4154 12.6824C8.81516 12.6824 10.1576 12.1256 11.1474 11.1347C12.1371 10.1437 12.6932 8.79967 12.6932 7.39823C12.6932 4.47988 10.3302 2.11409 7.4154 2.11409C4.50057 2.11409 2.13763 4.47988 2.13763 7.39823Z"
        fill="white"
    />
</svg>