<svg
    width="17"
    height="17"
    viewBox="0 0 17 17"
    fill="none"
    xmlns="http://www.w3.org/2000/svg"
>
    <g clip-path="url(#clip0_71_1996)">
        <path
            d="M8.5 0C6.81886 0 5.17547 0.498516 3.77766 1.43251C2.37984 2.3665 1.29037 3.69402 0.647028 5.24719C0.00368295 6.80036 -0.164645 8.50943 0.163329 10.1583C0.491303 11.8071 1.30085 13.3217 2.4896 14.5104C3.67834 15.6992 5.1929 16.5087 6.84174 16.8367C8.49057 17.1646 10.1996 16.9963 11.7528 16.353C13.306 15.7096 14.6335 14.6202 15.5675 13.2223C16.5015 11.8245 17 10.1811 17 8.5C16.9976 6.24641 16.1013 4.08582 14.5077 2.49228C12.9142 0.898753 10.7536 0.00243743 8.5 0ZM8.5 15.5833C7.09905 15.5833 5.72956 15.1679 4.56471 14.3896C3.39987 13.6112 2.49198 12.505 1.95586 11.2107C1.41974 9.91636 1.27946 8.49214 1.55277 7.11811C1.82609 5.74408 2.50071 4.48195 3.49133 3.49133C4.48195 2.50071 5.74408 1.82608 7.11811 1.55277C8.49215 1.27946 9.91637 1.41973 11.2107 1.95585C12.505 2.49197 13.6113 3.39986 14.3896 4.56471C15.1679 5.72956 15.5833 7.09905 15.5833 8.5C15.5813 10.378 14.8343 12.1785 13.5064 13.5064C12.1785 14.8343 10.378 15.5813 8.5 15.5833Z"
            fill="white"
            fill-opacity="0.31"
        />
        <path
            d="M6.99945 11.5514C6.76066 11.5515 6.53164 11.4566 6.36293 11.2876L4.4385 9.36385C4.23144 9.15671 4.23144 8.82095 4.4385 8.61381C4.64564 8.40674 4.98141 8.40674 5.18854 8.61381L6.99945 10.4247L11.7904 5.63382C11.9975 5.42675 12.3333 5.42675 12.5404 5.63382C12.7475 5.84095 12.7475 6.17672 12.5404 6.38385L7.63598 11.2876C7.46726 11.4566 7.23825 11.5515 6.99945 11.5514Z"
            fill="white"
            fill-opacity="0.31"
        />
    </g>
    <defs>
        <clipPath id="clip0_71_1996">
            <rect width="17" height="17" fill="white" />
        </clipPath>
    </defs>
</svg>