<svg
    width="17"
    height="17"
    viewBox="0 0 17 17"
    fill="none"
    xmlns="http://www.w3.org/2000/svg"
>
    <g clip-path="url(#clip0_71_1989)">
        <path
            d="M5.3125 9.20833C4.68207 9.20833 4.0658 9.02139 3.54162 8.67114C3.01744 8.3209 2.60889 7.82308 2.36763 7.24064C2.12638 6.6582 2.06326 6.0173 2.18625 5.39898C2.30924 4.78067 2.61282 4.21271 3.0586 3.76693C3.50438 3.32115 4.07234 3.01757 4.69065 2.89458C5.30896 2.77159 5.94986 2.83471 6.5323 3.07597C7.11474 3.31722 7.61256 3.72577 7.96281 4.24995C8.31306 4.77414 8.5 5.39041 8.5 6.02083C8.49906 6.86592 8.16294 7.67613 7.56537 8.2737C6.9678 8.87127 6.15759 9.2074 5.3125 9.20833ZM5.3125 4.25C4.96226 4.25 4.61989 4.35386 4.32868 4.54844C4.03747 4.74302 3.81049 5.01959 3.67646 5.34317C3.54243 5.66674 3.50736 6.0228 3.57569 6.36631C3.64402 6.70982 3.81268 7.02535 4.06033 7.273C4.30799 7.52066 4.62352 7.68931 4.96703 7.75764C5.31054 7.82597 5.66659 7.7909 5.99017 7.65687C6.31375 7.52284 6.59031 7.29587 6.78489 7.00466C6.97948 6.71345 7.08333 6.37107 7.08333 6.02083C7.08333 5.55118 6.89676 5.10076 6.56467 4.76867C6.23257 4.43657 5.78215 4.25 5.3125 4.25ZM10.625 16.2917V15.9375C10.625 14.5285 10.0653 13.1773 9.069 12.181C8.07272 11.1847 6.72146 10.625 5.3125 10.625C3.90354 10.625 2.55228 11.1847 1.556 12.181C0.559708 13.1773 0 14.5285 0 15.9375L0 16.2917C0 16.4795 0.0746278 16.6597 0.207466 16.7925C0.340304 16.9254 0.520472 17 0.708333 17C0.896195 17 1.07636 16.9254 1.2092 16.7925C1.34204 16.6597 1.41667 16.4795 1.41667 16.2917V15.9375C1.41667 14.9043 1.82712 13.9133 2.55773 13.1827C3.28834 12.4521 4.27926 12.0417 5.3125 12.0417C6.34574 12.0417 7.33666 12.4521 8.06727 13.1827C8.79788 13.9133 9.20833 14.9043 9.20833 15.9375V16.2917C9.20833 16.4795 9.28296 16.6597 9.4158 16.7925C9.54864 16.9254 9.7288 17 9.91667 17C10.1045 17 10.2847 16.9254 10.4175 16.7925C10.5504 16.6597 10.625 16.4795 10.625 16.2917ZM17 12.75C17 11.7928 16.7229 10.8561 16.2022 10.0529C15.6815 9.24975 14.9395 8.61446 14.0657 8.22373C13.1919 7.833 12.2237 7.70354 11.2779 7.85098C10.3321 7.99842 9.44928 8.41646 8.73588 9.05463C8.66558 9.11639 8.60823 9.19147 8.56712 9.27553C8.52601 9.35959 8.50197 9.45096 8.49637 9.54437C8.49078 9.63777 8.50375 9.73136 8.53453 9.81973C8.56531 9.90809 8.61329 9.98948 8.67571 10.0592C8.73812 10.1289 8.81373 10.1856 8.89817 10.2259C8.98261 10.2662 9.0742 10.2894 9.16765 10.2941C9.2611 10.2989 9.35457 10.285 9.44264 10.2534C9.53072 10.2218 9.61166 10.1731 9.68079 10.11C10.1904 9.65431 10.821 9.35582 11.4965 9.2506C12.172 9.14537 12.8636 9.2379 13.4877 9.51703C14.1117 9.79615 14.6417 10.2499 15.0136 10.8236C15.3854 11.3973 15.5833 12.0663 15.5833 12.75C15.5833 12.9379 15.658 13.118 15.7908 13.2509C15.9236 13.3837 16.1038 13.4583 16.2917 13.4583C16.4795 13.4583 16.6597 13.3837 16.7925 13.2509C16.9254 13.118 17 12.9379 17 12.75ZM12.3958 6.375C11.7654 6.375 11.1491 6.18806 10.625 5.83781C10.1008 5.48756 9.69222 4.98974 9.45097 4.40731C9.20971 3.82487 9.14659 3.18397 9.26958 2.56565C9.39257 1.94734 9.69615 1.37938 10.1419 0.933599C10.5877 0.487819 11.1557 0.184239 11.774 0.0612484C12.3923 -0.061742 13.0332 0.0013811 13.6156 0.242635C14.1981 0.48389 14.6959 0.89244 15.0461 1.41662C15.3964 1.9408 15.5833 2.55707 15.5833 3.1875C15.5824 4.03259 15.2463 4.8428 14.6487 5.44037C14.0511 6.03794 13.2409 6.37406 12.3958 6.375ZM12.3958 1.41667C12.0456 1.41667 11.7032 1.52053 11.412 1.71511C11.1208 1.90969 10.8938 2.18626 10.7598 2.50983C10.6258 2.83341 10.5907 3.18947 10.659 3.53297C10.7274 3.87648 10.896 4.19201 11.1437 4.43967C11.3913 4.68733 11.7069 4.85598 12.0504 4.92431C12.3939 4.99264 12.7499 4.95757 13.0735 4.82354C13.3971 4.68951 13.6736 4.46254 13.8682 4.17132C14.0628 3.88011 14.1667 3.53774 14.1667 3.1875C14.1667 2.71785 13.9801 2.26743 13.648 1.93533C13.3159 1.60324 12.8655 1.41667 12.3958 1.41667Z"
            fill="white"
        />
    </g>
    <defs>
        <clipPath id="clip0_71_1989">
            <rect width="17" height="17" fill="white" />
        </clipPath>
    </defs>
</svg>