<svg width="19" height="19" viewBox="0 0 19 19" fill="none" xmlns="http://www.w3.org/2000/svg">
<rect x="0.5" y="0.5" width="17.5" height="17.5" rx="8.75" stroke="#667085"/>
<path d="M8.98079 12C8.49278 12.0006 8.02151 11.7811 7.65612 11.383C7.43812 11.1443 7.23145 10.9121 7.09612 10.7455L5.18079 8.42863C5.06292 8.27422 4.99815 8.06969 5.00004 7.85784C5.00193 7.646 5.07034 7.44327 5.19094 7.29209C5.31155 7.14091 5.475 7.05301 5.64707 7.04678C5.81915 7.04055 5.98651 7.11648 6.11412 7.25868L8.03412 9.5797C8.15945 9.73312 8.34612 9.94152 8.54012 10.154C8.66191 10.2862 8.81872 10.3592 8.98112 10.3592C9.14352 10.3592 9.30033 10.2862 9.42212 10.154C9.61545 9.94234 9.80212 9.73394 9.92345 9.58545L11.8475 7.25868C11.9089 7.17812 11.983 7.11369 12.0653 7.06924C12.1475 7.0248 12.2362 7.00127 12.326 7.00005C12.4158 6.99883 12.5049 7.01996 12.5879 7.06217C12.6709 7.10438 12.7461 7.16679 12.8091 7.24566C12.872 7.32454 12.9213 7.41824 12.9541 7.52116C12.9868 7.62407 13.0024 7.73407 12.9997 7.84456C12.9971 7.95504 12.9763 8.06373 12.9387 8.16409C12.9011 8.26446 12.8474 8.35444 12.7808 8.42863L10.8615 10.7496C10.7281 10.9137 10.5235 11.1435 10.3061 11.3806C9.94095 11.7799 9.46932 12.0004 8.98079 12Z" fill="#667085"/>
</svg>
